<svg width="72" height="19" viewBox="0 0 72 19" fill="none" xmlns="http://www.w3.org/2000/svg">
  <path fill-rule="evenodd" clip-rule="evenodd" d="M39.468 18V11.76L43.956 18H48.204L43.212 11.52L47.892 5.03997H43.86L39.468 11.28V0.719971H36.156L36.132 18H39.468ZM25.764 18.36C26.884 18.36 27.81 18.166 28.542 17.778C29.1113 17.4762 29.6504 17.028 30.1593 16.4335L30.18 16.408V18H33.036V10.08C33.036 9.48797 33.012 8.95197 32.964 8.47197C32.916 7.99197 32.764 7.51197 32.508 7.03197C32.052 6.16797 31.38 5.55997 30.492 5.20797C29.604 4.85597 28.588 4.67997 27.444 4.67997C25.884 4.67997 24.652 5.01597 23.748 5.68797C22.844 6.35997 22.228 7.23197 21.9 8.30397L24.852 9.23997C25.06 8.64797 25.424 8.23597 25.944 8.00397C26.464 7.77197 26.964 7.65597 27.444 7.65597C28.308 7.65597 28.924 7.83597 29.292 8.19597C29.5496 8.44797 29.717 8.79993 29.7943 9.25185L29.817 9.42097L29.2963 9.49845L28.7621 9.57789L28.248 9.65397C27.408 9.77797 26.656 9.90797 25.992 10.044C25.328 10.18 24.756 10.336 24.276 10.512C23.58 10.768 23.026 11.086 22.614 11.466C22.202 11.846 21.904 12.284 21.72 12.78C21.536 13.276 21.444 13.824 21.444 14.424C21.444 15.144 21.61 15.802 21.942 16.398C22.274 16.994 22.762 17.47 23.406 17.826C24.05 18.182 24.836 18.36 25.764 18.36ZM3.44401 18V10.152C3.44401 9.40797 3.65001 8.80197 4.06201 8.33397C4.47401 7.86597 5.02001 7.63197 5.70001 7.63197C6.41201 7.63197 6.97001 7.86997 7.37401 8.34597C7.77801 8.82197 7.98001 9.48797 7.98001 10.344V18H11.244V10.152C11.244 9.65597 11.338 9.21797 11.526 8.83797C11.714 8.45797 11.976 8.16197 12.312 7.94997C12.648 7.73797 13.044 7.63197 13.5 7.63197C14.212 7.63197 14.77 7.86997 15.174 8.34597C15.578 8.82197 15.78 9.48797 15.78 10.344V18H19.044V9.47997C19.044 8.06397 18.666 6.91797 17.91 6.04197C17.154 5.16597 16.036 4.72797 14.556 4.72797C13.692 4.72797 12.906 4.91797 12.198 5.29797C11.54 5.65115 11.0063 6.13391 10.5971 6.74624L10.5428 6.6453C10.2845 6.20797 9.95052 5.83464 9.54104 5.5253L9.33001 5.37597C8.67801 4.94397 7.84401 4.72797 6.82801 4.72797C5.94001 4.72797 5.13801 4.92397 4.42201 5.31597C3.94467 5.5773 3.53223 5.90086 3.18467 6.28664L3.03601 6.46097V5.03997H0.156006V18H3.44401ZM25.488 15.624C25.76 15.736 26.084 15.792 26.46 15.792C27.06 15.792 27.566 15.686 27.978 15.474C28.39 15.262 28.718 15.02 28.962 14.748C29.206 14.476 29.372 14.248 29.46 14.064C29.628 13.712 29.726 13.302 29.754 12.834L29.7691 12.5625C29.7781 12.3878 29.7848 12.2256 29.7893 12.0758L29.789 12.066L29.7446 12.073C29.2259 12.1608 28.779 12.2385 28.404 12.306C27.804 12.414 27.32 12.512 26.952 12.6C26.584 12.688 26.26 12.784 25.98 12.888C25.66 13.016 25.402 13.154 25.206 13.302C25.01 13.45 24.866 13.612 24.774 13.788C24.682 13.964 24.636 14.16 24.636 14.376C24.636 14.672 24.71 14.926 24.858 15.138C25.006 15.35 25.216 15.512 25.488 15.624ZM60.816 8.33997C61.272 9.49997 61.432 10.864 61.296 12.432H59.724H52.197L52.2144 12.5572C52.326 13.2768 52.5632 13.865 52.926 14.322C53.45 14.982 54.22 15.312 55.236 15.312C55.876 15.312 56.424 15.172 56.88 14.892C57.336 14.612 57.684 14.208 57.924 13.68L61.188 14.616C60.7 15.8 59.93 16.72 58.878 17.376C57.826 18.032 56.676 18.36 55.428 18.36C54.1 18.36 52.93 18.074 51.918 17.502C50.906 16.93 50.114 16.142 49.542 15.138C48.97 14.134 48.684 12.984 48.684 11.688C48.684 10.272 48.964 9.03997 49.524 7.99197C50.084 6.94397 50.856 6.12997 51.84 5.54997C52.824 4.96997 53.956 4.67997 55.236 4.67997C56.596 4.67997 57.752 4.99997 58.704 5.63997C59.656 6.27997 60.36 7.17997 60.816 8.33997ZM57.993 10.008H52.284L52.3074 9.89805C52.4191 9.42601 52.5865 9.02255 52.8097 8.68769L52.926 8.52597C53.45 7.84997 54.268 7.51197 55.38 7.51197C56.332 7.51197 57.018 7.80197 57.438 8.38197C57.6965 8.73889 57.8754 9.23594 57.9748 9.87309L57.993 10.008ZM67.284 11.376V18H63.996V5.03997H66.876V7.12797L66.9269 7.03677C67.021 6.87677 67.124 6.72317 67.236 6.57597C67.516 6.20797 67.86 5.90397 68.268 5.66397C68.58 5.47197 68.92 5.32197 69.288 5.21397C69.656 5.10597 70.036 5.03797 70.428 5.00997C70.82 4.98197 71.212 4.99197 71.604 5.03997V8.08797C71.244 7.97597 70.826 7.93797 70.35 7.97397C69.874 8.00997 69.444 8.11997 69.06 8.30397C68.676 8.47997 68.352 8.71397 68.088 9.00597C67.824 9.29797 67.624 9.64197 67.488 10.038C67.352 10.434 67.284 10.88 67.284 11.376Z" fill="white"/>
</svg>